<svg xmlns="http://www.w3.org/2000/svg" xmlns:xlink="http://www.w3.org/1999/xlink" width="247" height="62" viewBox="0 0 247 62"><defs><clipPath id="a"><rect width="132" height="62" transform="translate(-12.011 0)" fill="none"/></clipPath><clipPath id="b"><path d="M0,0H112.463V62H0Z" transform="translate(0 0)" fill="none"/></clipPath></defs><g transform="translate(0.047 -0.432)"><g transform="translate(126.964 0.432)" clip-path="url(#a)"><g transform="translate(-103.011 0)" fill="none" stroke="#4020c5" stroke-width="5"><rect width="223" height="62" rx="31" stroke="none"/><rect x="2.5" y="2.5" width="218" height="57" rx="28.5" fill="none"/></g></g><g transform="translate(-0.047 0.432)" clip-path="url(#b)"><g transform="translate(0 0)" fill="none" stroke="#fa0" stroke-width="5"><rect width="228" height="62" rx="31" stroke="none"/><rect x="2.5" y="2.5" width="223" height="57" rx="28.5" fill="none"/></g></g><text transform="translate(36.953 43.432)" fill="#fa0" font-size="39" font-family="GOODBRUSH, GOOD BRUSH" letter-spacing="0.133em"><tspan x="0" y="0">Art</tspan><tspan y="0" fill="#4020c5">gent</tspan></text><g transform="translate(-71.047 -39.568)"><circle cx="3" cy="3" r="3" transform="translate(292 78)" fill="#4020c5"/><circle cx="3" cy="3" r="3" transform="translate(292 58)" fill="#4020c5"/></g><g transform="translate(-272.047 -39.568)"><circle cx="3" cy="3" r="3" transform="translate(292 78)" fill="#fa0"/><circle cx="3" cy="3" r="3" transform="translate(292 58)" fill="#fa0"/></g></g></svg>